<svg xmlns="http://www.w3.org/2000/svg" viewBox="0 0 24 24" width="24" height="24">
  <path fill="#FF9900" d="M22 17.5c-3 2.2-7.8 3-12 2.5-4-.5-7.5-2.2-10-5-.3-.3-.1-.7.3-.5 4.2 2 9.5 2.8 14.5 2 3.8-.6 7.6-2.2 9.8-4.8.3-.3.7 0 .4.4zM22.8 15.6c-.3-.5-1.5-.3-2-.2-.4.1-.4.4-.1.6.8.6 1.8.8 2.2.3.4-.4.2-1.3-.1-1.7z" />
  <path fill="#FF9900" d="M11.5 6.5c-.8 0-1.5.2-2 .5V4.6c0-.5-.4-.8-.8-.8H7.5c-.5 0-.8.4-.8.8v8.6c0 .5.4.8.8.8h1.2c.5 0 .8-.4.8-.8v-.8c.5.3 1.2.5 2 .5 2.2 0 4-1.8 4-4s-1.8-4-4-4zm0 6.2c-1.2 0-2.2-1-2.2-2.2s1-2.2 2.2-2.2 2.2 1 2.2 2.2-1 2.2-2.2 2.2z" />
</svg>
