<svg xmlns="http://www.w3.org/2000/svg" viewBox="0 0 24 24" width="24" height="24">
  <path fill="#3776AB" d="M11.9 2c-2.4 0-4.6.2-4.6.6v2c0 .4.4.8.8.8h3.8v.6H6.5c-.8 0-1.4.6-1.4 1.4v4c0 .8.6 1.4 1.4 1.4h1.1v-1.1c0-1.2.9-2.1 2.1-2.1h3.8c.8 0 1.4-.6 1.4-1.4V4.6c0-.8-.6-1.4-1.4-1.4H11.9c-.8 0-1.4.6-1.4 1.4V6h1.1v-.6c0-.4.4-.8.8-.8h3.8c.4 0 .8.4.8.8v2c0 .4-.4.8-.8.8h-3.8V9h5.4c.8 0 1.4-.6 1.4-1.4V3.6C20.5 2.8 19.9 2 19.1 2h-7.2zM6.5 12c-.8 0-1.4.6-1.4 1.4v4c0 .8.6 1.4 1.4 1.4h7.2c2.4 0 4.6-.2 4.6-.6v-2c0-.4-.4-.8-.8-.8h-3.8v-.6h5.4c.8 0 1.4-.6 1.4-1.4v-4c0-.8-.6-1.4-1.4-1.4h-1.1v1.1c0 1.2-.9 2.1-2.1 2.1H11.7c-.8 0-1.4.6-1.4 1.4v3.6c0 .8.6 1.4 1.4 1.4h1.6c.8 0 1.4-.6 1.4-1.4V18h-1.1v.6c0 .4-.4.8-.8.8H9c-.4 0-.8-.4-.8-.8v-2c0-.4.4-.8.8-.8h3.8v-.6H6.5z" />
  <circle cx="9" cy="4.5" r="0.8" fill="#ffffff" />
  <circle cx="15" cy="19.5" r="0.8" fill="#ffffff" />
</svg>
